# xmcd
#
# Track frame offsets: 
#        183
#        15763
#        30013
#        44225
#        56263
#        69930
#        82615
#        96403
#        109193
#        123218
#        136905
#        149555
#        160720
#        173165
#        183265
#        199648
#
# Disc length: 2808 seconds
#
# Revision: 6
# Processed by: cddbd v1.5.2PL0 Copyright (c) Steve Scherf et al.
# Submitted via: ExactAudioCopyFreeDBPlugin 1.0
#
DISCID=c10af610
DTITLE=John Lee Hooker - The Ultimate Collection 1948-1990 [CD 1)
DYEAR=1991
DGENRE=Blues
TTITLE0=Teachin' the Blues
TTITLE1=Boogie Chillen
TTITLE2=Sally Mae
TTITLE3=Let Your Daddy Ride
TTITLE4=Crawlin' King Snake
TTITLE5=Weeping Willow Boogie
TTITLE6=Hobo Blues
TTITLE7=Huckle Up Baby
TTITLE8=I'm in the Mood
TTITLE9=John L's House Rent Boogie
TTITLE10=No More Doggin
TTITLE11=I Need Some Money
TTITLE12=Frisco Blues
TTITLE13=Dimples
TTITLE14=It Serves Me Right
TTITLE15=Bottle Up and Go
EXTD=
EXTT0=
EXTT1=
EXTT2=
EXTT3=
EXTT4=
EXTT5=
EXTT6=
EXTT7=
EXTT8=
EXTT9=
EXTT10=
EXTT11=
EXTT12=
EXTT13=
EXTT14=
EXTT15=
PLAYORDER=
